<svg xmlns="http://www.w3.org/2000/svg" viewBox="0 0 2275.86 488.5">
  <g style="isolation: isolate">
    <g id="Layer_2" data-name="Layer 2">
      <g id="Layer_1-2" data-name="Layer 1">
        <g id="swatches-logo-full">
          <g>
            <path d="M50.8,387.17q2.48,17.44,9.71,26.09Q73.74,429,105.85,429q19.23,0,31.23-4.14,22.75-7.95,22.76-29.55,0-12.62-11.15-19.53-11.15-6.74-35.36-11.92l-27.58-6q-40.65-9-55.86-19.53Q4.15,320.64,4.15,283.14q0-34.22,25.19-56.86t74-22.63q40.76,0,69.54,21.34T203,286.94H151.89q-1.41-23-20.55-32.66-12.75-6.39-31.71-6.39-21.07,0-33.66,8.29T53.4,279.34q0,13.65,12.4,20.39,8,4.49,33.84,10.54l44.7,10.54q29.39,6.92,44,18.49,22.77,18,22.78,52,0,34.9-27,58t-76.24,23.07q-50.29,0-79.12-22.73T0,387.17Z" fill="#a5afbf"/>
            <path d="M251.29,211.08l33.63,145.86,7.32,40.59,7.35-39.76,28.77-146.69h56.16l30.26,145.84,7.75,40.61,7.87-39,34-147.42h54.19L446.88,465.79h-51l-30.76-149-9-49.24-9,49.24-30.76,149H267L194.78,211.08Z" fill="#a5afbf"/>
            <path d="M572.3,211.08h60.22l90.12,254.71H664.92l-16.81-52.36h-93.8l-17.26,52.36H481.38Zm-3.51,158.46H634L601.85,269.31Z" fill="#a5afbf"/>
            <path d="M882.17,211.08v45.1H806V465.79H752.39V256.18H675.84v-45.1Z" fill="#a5afbf"/>
            <path d="M905.75,237.69q30.76-31.45,78.3-31.45,63.59,0,93,42.16,16.23,23.68,17.43,47.53h-53.22q-5.07-18.33-13-27.65-14.21-16.59-42.15-16.59-28.44,0-44.86,23.41t-16.42,66.27q0,42.86,17.33,64.2t44,21.34q27.39,0,41.75-18.32,7.95-9.85,13.19-29.55H1094q-6.84,41.65-35,67.74T987,472.87q-54.36,0-85.48-35.25-31.11-35.42-31.11-97.11Q870.36,273.81,905.75,237.69Z" fill="#a5afbf"/>
            <path d="M1104.8,465.79V211.08h52.87v97.11h99V211.08h52.88V465.79h-52.88V352.09h-99v113.7Z" fill="#a5afbf"/>
            <path d="M1517.22,256.18H1382.44v54.09h123.72v44.24H1382.44V420h141v45.79h-193V211.08h186.8Z" fill="#a5afbf"/>
            <path d="M1571.43,387.17q2.46,17.44,9.7,26.09Q1594.36,429,1626.48,429q19.21,0,31.22-4.14,22.77-7.95,22.77-29.55,0-12.62-11.15-19.53Q1658.16,369,1634,363.84l-27.57-6q-40.67-9-55.86-19.53-25.76-17.62-25.75-55.12,0-34.22,25.19-56.86t74-22.63q40.76,0,69.53,21.34t30.18,61.95h-51.15q-1.43-23-20.55-32.66-12.77-6.39-31.71-6.39-21.09,0-33.66,8.29T1574,279.34q0,13.65,12.4,20.39,8,4.49,33.84,10.54l44.7,10.54q29.38,6.92,44,18.49,22.79,18,22.78,52,0,34.9-27,58t-76.24,23.07q-50.3,0-79.12-22.73t-28.82-62.46Z" fill="#a5afbf"/>
          </g>
          <g>
            <path d="M1772.35,488.5V48.35h125.3l20-48.35,115.77,48,37-37,89.33,89.33,26.31,10.89-4.52,10.9,94.3,94.3L2046,446.21a96.43,96.43,0,0,1-80,42.29Z" fill="#eff1f4"/>
            <g>
              <g>
                <g>
                  <polygon points="2070.44 45.19 2038.65 76.97 2038.65 314.65 2038.65 355.78 2070.44 387.56 2241.63 216.37 2070.44 45.19" fill="#00bfff"/>
                  <path d="M2038.65,355.78v35.88a72.33,72.33,0,0,1-11.46,39.15l43.25-43.25Z" fill="#c1c4c9"/>
                </g>
                <g opacity="0.3" style="mix-blend-mode: multiply">
                  <polygon points="2135.35 170.38 2061.8 347.94 2035.84 410.62 2043.35 398.82 2173.43 194.64 2135.35 170.38" fill="#a5afbf"/>
                </g>
              </g>
              <g>
                <g>
                  <g>
                    <polygon points="2029.57 72.55 1930.78 31.63 1913.83 72.55 2029.57 72.55" fill="gold"/>
                    <polygon points="2038.65 76.32 2038.65 314.65 2038.65 338.36 2061.8 347.94 2154.44 124.28 2038.65 76.32" fill="gold"/>
                  </g>
                  <path d="M2038.65,338.36v53.3a72.8,72.8,0,0,1-2,17.08l25.18-60.8Z" fill="#d2d5d8"/>
                </g>
                <g opacity="0.3" style="mix-blend-mode: multiply">
                  <polygon points="2038.65 106.39 2038.65 314.65 2038.65 378.33 2043.12 353.01 2085.16 114.59 2038.65 106.39" fill="#a5afbf"/>
                </g>
              </g>
              <g>
                <g>
                  <rect x="1796.56" y="72.55" width="242.09" height="242.09" fill="#ff1493"/>
                  <path d="M1917.61,267A73.36,73.36,0,1,1,1991,193.6,73.35,73.35,0,0,1,1917.61,267Zm0-14.67a58.69,58.69,0,1,0-58.69-58.69A58.69,58.69,0,0,0,1917.61,252.29Zm-36.68-58.69h14.67a22,22,0,1,0,44,0h14.67a36.68,36.68,0,0,1-73.36,0Z" opacity="0.3" style="mix-blend-mode: multiply"/>
                </g>
                <g>
                  <path d="M1826.56,314.65h212.09a0,0,0,0,1,0,0V464.29a0,0,0,0,1,0,0H1796.56a0,0,0,0,1,0,0V344.65A30,30,0,0,1,1826.56,314.65Z" transform="translate(3835.21 778.94) rotate(-180)" fill="#e1e4ea"/>
                  <circle cx="1966.54" cy="389.47" r="28.59" fill="#a5afbf"/>
                </g>
              </g>
            </g>
          </g>
        </g>
      </g>
    </g>
  </g>
</svg>
