<svg xmlns="http://www.w3.org/2000/svg" viewBox="0 0 503.51 488.5">
  <g style="isolation: isolate">
    <g id="Layer_2" data-name="Layer 2">
      <g id="Layer_1-2" data-name="Layer 1">
        <g id="swatches-logo">
          <path d="M0,488.5V48.35H125.3L145.32,0,261.09,48l37-37,89.32,89.33,26.32,10.89-4.52,10.9,94.3,94.3L273.67,446.21a96.43,96.43,0,0,1-80,42.29Z" fill="#eff1f4"/>
          <g>
            <g>
              <g>
                <polygon points="298.09 45.19 266.3 76.97 266.3 314.65 266.3 355.78 298.09 387.56 469.27 216.37 298.09 45.19" fill="#00bfff"/>
                <path d="M266.3,355.78v35.88a72.33,72.33,0,0,1-11.46,39.15l43.25-43.25Z" fill="#c1c4c9"/>
              </g>
              <g opacity="0.3" style="mix-blend-mode: multiply">
                <polygon points="363 170.38 289.45 347.94 263.49 410.62 271 398.82 401.08 194.64 363 170.38" fill="#a5afbf"/>
              </g>
            </g>
            <g>
              <g>
                <g>
                  <polygon points="257.22 72.55 158.43 31.63 141.48 72.55 257.22 72.55" fill="gold"/>
                  <polygon points="266.3 76.32 266.3 314.65 266.3 338.36 289.45 347.94 382.09 124.28 266.3 76.32" fill="gold"/>
                </g>
                <path d="M266.3,338.36v53.3a72.8,72.8,0,0,1-2,17.08l25.18-60.8Z" fill="#d2d5d8"/>
              </g>
              <g opacity="0.3" style="mix-blend-mode: multiply">
                <polygon points="266.3 106.39 266.3 314.65 266.3 378.33 270.77 353.01 312.81 114.59 266.3 106.39" fill="#a5afbf"/>
              </g>
            </g>
            <g>
              <g>
                <rect x="24.21" y="72.55" width="242.09" height="242.09" fill="#ff1493"/>
                <path d="M145.26,267a73.36,73.36,0,1,1,73.36-73.36A73.35,73.35,0,0,1,145.26,267Zm0-14.67A58.69,58.69,0,1,0,86.57,193.6,58.69,58.69,0,0,0,145.26,252.29ZM108.58,193.6h14.67a22,22,0,1,0,44,0h14.68a36.68,36.68,0,0,1-73.36,0Z" opacity="0.3" style="mix-blend-mode: multiply"/>
              </g>
              <g>
                <path d="M54.21,314.65H266.3a0,0,0,0,1,0,0V464.29a0,0,0,0,1,0,0H24.21a0,0,0,0,1,0,0V344.65A30,30,0,0,1,54.21,314.65Z" transform="translate(290.51 778.94) rotate(-180)" fill="#e1e4ea"/>
                <circle cx="194.18" cy="389.47" r="28.59" fill="#a5afbf"/>
              </g>
            </g>
          </g>
        </g>
      </g>
    </g>
  </g>
</svg>
